<mxfile host="65bd71144e">
    <diagram id="CW-8Yu30YbTjcsVGJmG-" name="Page-1">
        <mxGraphModel dx="3910" dy="2553" grid="1" gridSize="10" guides="1" tooltips="1" connect="1" arrows="1" fold="1" page="1" pageScale="1" pageWidth="3000" pageHeight="3000" background="none" math="0" shadow="0">
            <root>
                <mxCell id="0"/>
                <mxCell id="1" parent="0"/>
                <mxCell id="7" value="" style="edgeStyle=none;html=1;" parent="1" target="6" edge="1">
                    <mxGeometry relative="1" as="geometry">
                        <mxPoint x="450" y="90" as="sourcePoint"/>
                    </mxGeometry>
                </mxCell>
                <mxCell id="10" value="" style="edgeStyle=none;html=1;" parent="1" source="6" target="9" edge="1">
                    <mxGeometry relative="1" as="geometry"/>
                </mxCell>
                <mxCell id="6" value="&lt;span style=&quot;&quot; data-slate-fragment=&quot;JTVCJTdCJTIydHlwZSUyMiUzQSUyMnBhcmFncmFwaCUyMiUyQyUyMmNoaWxkcmVuJTIyJTNBJTVCJTdCJTIydGV4dCUyMiUzQSUyMlNldCUyMFNlcmlhbCUyMGJ1bmQlMjByYXRlJTIwJTIwJTNBJTIwMTE1MjAwJTIyJTdEJTVEJTdEJTVE&quot;&gt;Set Serial bund rate  : 115200&lt;/span&gt;" style="rounded=1;whiteSpace=wrap;html=1;strokeWidth=1;" parent="1" vertex="1">
                    <mxGeometry x="340" y="120" width="220" height="50" as="geometry"/>
                </mxCell>
                <mxCell id="8" value="START" style="rounded=1;whiteSpace=wrap;html=1;strokeWidth=1;arcSize=50;" parent="1" vertex="1">
                    <mxGeometry x="390" y="40" width="120" height="60" as="geometry"/>
                </mxCell>
                <mxCell id="13" value="" style="edgeStyle=none;html=1;" parent="1" source="9" target="12" edge="1">
                    <mxGeometry relative="1" as="geometry"/>
                </mxCell>
                <mxCell id="9" value="&lt;p data-slate-node=&quot;element&quot;&gt;&lt;span data-slate-node=&quot;text&quot;&gt;Set up stepper for arm parameter :&lt;/span&gt;&lt;/p&gt;&lt;p data-slate-node=&quot;element&quot;&gt;&lt;span style=&quot;background-color: initial;&quot;&gt;Enable pin, Diraction pin, Pulse pin, Max velocity, Acceleration&amp;nbsp;&lt;/span&gt;&lt;/p&gt;" style="rounded=1;whiteSpace=wrap;html=1;strokeWidth=1;" parent="1" vertex="1">
                    <mxGeometry x="270" y="190" width="360" height="60" as="geometry"/>
                </mxCell>
                <mxCell id="16" value="" style="edgeStyle=none;html=1;" parent="1" source="12" target="15" edge="1">
                    <mxGeometry relative="1" as="geometry"/>
                </mxCell>
                <mxCell id="12" value="&lt;br&gt;&lt;p data-slate-node=&quot;element&quot;&gt;&lt;span data-slate-node=&quot;text&quot;&gt;&lt;span data-slate-leaf=&quot;true&quot;&gt;&lt;span data-slate-string=&quot;true&quot;&gt;Set up stepper for pen parameter :&lt;/span&gt;&lt;/span&gt;&lt;/span&gt;&lt;/p&gt;&lt;p data-slate-node=&quot;element&quot;&gt;&lt;span style=&quot;background-color: initial;&quot;&gt;Enable pin, Diraction pin, Pulse pin, Max velocity, Acceleration&lt;/span&gt;&lt;/p&gt;&lt;br&gt;" style="whiteSpace=wrap;html=1;rounded=1;strokeWidth=1;" parent="1" vertex="1">
                    <mxGeometry x="270" y="270" width="360" height="60" as="geometry"/>
                </mxCell>
                <mxCell id="18" value="" style="edgeStyle=none;html=1;" parent="1" source="15" target="17" edge="1">
                    <mxGeometry relative="1" as="geometry"/>
                </mxCell>
                <mxCell id="15" value="&lt;span style=&quot;&quot; data-slate-fragment=&quot;JTVCJTdCJTIydHlwZSUyMiUzQSUyMnBhcmFncmFwaCUyMiUyQyUyMmNoaWxkcmVuJTIyJTNBJTVCJTdCJTIydGV4dCUyMiUzQSUyMlNldCUyMHVwJTIwbGltaXQlMjBzd2l0Y2glMjBwaW4lMjIlN0QlNUQlN0QlNUQ=&quot;&gt;Set up limit switch pin&lt;/span&gt;" style="whiteSpace=wrap;html=1;rounded=1;strokeWidth=1;" parent="1" vertex="1">
                    <mxGeometry x="390" y="350" width="120" height="60" as="geometry"/>
                </mxCell>
                <mxCell id="21" style="edgeStyle=none;html=1;" parent="1" source="17" target="20" edge="1">
                    <mxGeometry relative="1" as="geometry"/>
                </mxCell>
                <mxCell id="17" value="" style="ellipse;whiteSpace=wrap;html=1;rounded=1;strokeWidth=1;" parent="1" vertex="1">
                    <mxGeometry x="440" y="430" width="20" height="20" as="geometry"/>
                </mxCell>
                <mxCell id="27" value="" style="edgeStyle=none;html=1;" parent="1" source="20" target="26" edge="1">
                    <mxGeometry relative="1" as="geometry"/>
                </mxCell>
                <mxCell id="20" value="&lt;span style=&quot;&quot; data-slate-fragment=&quot;JTVCJTdCJTIydHlwZSUyMiUzQSUyMnBhcmFncmFwaCUyMiUyQyUyMmNoaWxkcmVuJTIyJTNBJTVCJTdCJTIydGV4dCUyMiUzQSUyMklmJTIwaGF2ZSUyMG1lc3NhZ2UlMjBmb3JtJTIwU2VyaWFsJTIyJTdEJTVEJTdEJTVE&quot;&gt;If have message form Serial&lt;/span&gt;" style="rhombus;whiteSpace=wrap;html=1;rounded=1;strokeWidth=1;" parent="1" vertex="1">
                    <mxGeometry x="382.5" y="470" width="135" height="130" as="geometry"/>
                </mxCell>
                <mxCell id="23" value="" style="endArrow=classic;html=1;exitX=0.015;exitY=0.531;exitDx=0;exitDy=0;exitPerimeter=0;entryX=0;entryY=0.5;entryDx=0;entryDy=0;" parent="1" source="20" target="17" edge="1">
                    <mxGeometry relative="1" as="geometry">
                        <mxPoint x="380" y="490" as="sourcePoint"/>
                        <mxPoint x="270" y="500" as="targetPoint"/>
                        <Array as="points">
                            <mxPoint x="330" y="540"/>
                            <mxPoint x="330" y="490"/>
                            <mxPoint x="330" y="440"/>
                        </Array>
                    </mxGeometry>
                </mxCell>
                <mxCell id="24" value="&lt;span style=&quot;&quot; data-slate-fragment=&quot;JTVCJTdCJTIydHlwZSUyMiUzQSUyMnBhcmFncmFwaCUyMiUyQyUyMmNoaWxkcmVuJTIyJTNBJTVCJTdCJTIydGV4dCUyMiUzQSUyMkRvbid0JTIwaGF2ZSUyMG1lc3NhZ2UlMjIlN0QlNUQlN0QlNUQ=&quot;&gt;Don't have message&lt;/span&gt;" style="edgeLabel;resizable=0;html=1;align=center;verticalAlign=middle;strokeWidth=1;" parent="23" connectable="0" vertex="1">
                    <mxGeometry relative="1" as="geometry">
                        <mxPoint y="23" as="offset"/>
                    </mxGeometry>
                </mxCell>
                <mxCell id="35" value="" style="edgeStyle=none;html=1;" parent="1" source="26" target="34" edge="1">
                    <mxGeometry relative="1" as="geometry"/>
                </mxCell>
                <mxCell id="26" value="Create Variable :&amp;nbsp;functionCase, parameter[2], index&amp;nbsp;" style="whiteSpace=wrap;html=1;rounded=1;strokeWidth=1;" parent="1" vertex="1">
                    <mxGeometry x="260" y="620" width="380" height="70" as="geometry"/>
                </mxCell>
                <mxCell id="40" style="edgeStyle=none;html=1;entryX=0.5;entryY=0;entryDx=0;entryDy=0;" parent="1" source="31" target="39" edge="1">
                    <mxGeometry relative="1" as="geometry"/>
                </mxCell>
                <mxCell id="44" value="have message in Serial" style="edgeLabel;html=1;align=center;verticalAlign=middle;resizable=0;points=[];" parent="40" vertex="1" connectable="0">
                    <mxGeometry x="-0.5069" y="1" relative="1" as="geometry">
                        <mxPoint y="-1" as="offset"/>
                    </mxGeometry>
                </mxCell>
                <mxCell id="49" style="edgeStyle=none;html=1;" parent="1" source="31" edge="1">
                    <mxGeometry relative="1" as="geometry">
                        <mxPoint x="450" y="1230" as="targetPoint"/>
                        <Array as="points">
                            <mxPoint x="260" y="870"/>
                            <mxPoint x="260" y="1200"/>
                            <mxPoint x="370" y="1200"/>
                            <mxPoint x="450" y="1200"/>
                        </Array>
                    </mxGeometry>
                </mxCell>
                <mxCell id="52" value="don't have message in Serail&amp;nbsp;" style="edgeLabel;html=1;align=center;verticalAlign=middle;resizable=0;points=[];" parent="49" vertex="1" connectable="0">
                    <mxGeometry x="-0.7348" y="-5" relative="1" as="geometry">
                        <mxPoint x="-45" y="86" as="offset"/>
                    </mxGeometry>
                </mxCell>
                <mxCell id="31" value="&lt;span style=&quot;&quot; data-slate-fragment=&quot;JTVCJTdCJTIydHlwZSUyMiUzQSUyMnBhcmFncmFwaCUyMiUyQyUyMmNoaWxkcmVuJTIyJTNBJTVCJTdCJTIydGV4dCUyMiUzQSUyMklmJTIwaGF2ZSUyMG1lc3NhZ2UlMjBmb3JtJTIwU2VyaWFsJTIyJTdEJTVEJTdEJTVE&quot;&gt;If have message form Serial&lt;/span&gt;" style="rhombus;whiteSpace=wrap;html=1;rounded=1;strokeWidth=1;" parent="1" vertex="1">
                    <mxGeometry x="383" y="800" width="135" height="130" as="geometry"/>
                </mxCell>
                <mxCell id="37" style="edgeStyle=none;html=1;exitX=0.5;exitY=1;exitDx=0;exitDy=0;" parent="1" source="34" target="31" edge="1">
                    <mxGeometry relative="1" as="geometry"/>
                </mxCell>
                <mxCell id="34" value="functionCase is First byte in message in Serial&amp;nbsp;" style="whiteSpace=wrap;html=1;rounded=1;strokeWidth=1;" parent="1" vertex="1">
                    <mxGeometry x="308" y="710" width="285" height="70" as="geometry"/>
                </mxCell>
                <mxCell id="43" style="edgeStyle=none;html=1;entryX=0.5;entryY=0;entryDx=0;entryDy=0;" parent="1" source="39" target="42" edge="1">
                    <mxGeometry relative="1" as="geometry"/>
                </mxCell>
                <mxCell id="39" value="parameter in current index is 2 bytes in message in Serial" style="rounded=1;whiteSpace=wrap;html=1;strokeWidth=1;" parent="1" vertex="1">
                    <mxGeometry x="284.5" y="1020" width="332" height="60" as="geometry"/>
                </mxCell>
                <mxCell id="47" style="edgeStyle=none;html=1;entryX=1;entryY=0.5;entryDx=0;entryDy=0;" parent="1" source="42" target="31" edge="1">
                    <mxGeometry relative="1" as="geometry">
                        <Array as="points">
                            <mxPoint x="450" y="1190"/>
                            <mxPoint x="630" y="1190"/>
                            <mxPoint x="630" y="1010"/>
                            <mxPoint x="630" y="865"/>
                        </Array>
                    </mxGeometry>
                </mxCell>
                <mxCell id="42" value="index increase by 1" style="whiteSpace=wrap;html=1;rounded=1;strokeWidth=1;" parent="1" vertex="1">
                    <mxGeometry x="390" y="1100" width="120" height="60" as="geometry"/>
                </mxCell>
                <mxCell id="57" style="edgeStyle=none;html=1;entryX=1;entryY=0.5;entryDx=0;entryDy=0;" parent="1" source="56" target="17" edge="1">
                    <mxGeometry relative="1" as="geometry"/>
                </mxCell>
                <mxCell id="56" value="A" style="shape=offPageConnector;whiteSpace=wrap;html=1;strokeWidth=1;" parent="1" vertex="1">
                    <mxGeometry x="560" y="400" width="80" height="80" as="geometry"/>
                </mxCell>
                <mxCell id="58" value="B" style="shape=offPageConnector;whiteSpace=wrap;html=1;strokeWidth=1;" parent="1" vertex="1">
                    <mxGeometry x="410.5" y="1230" width="80" height="80" as="geometry"/>
                </mxCell>
                <mxCell id="118" style="edgeStyle=none;html=1;entryX=0.5;entryY=0;entryDx=0;entryDy=0;" parent="1" source="59" target="60" edge="1">
                    <mxGeometry relative="1" as="geometry"/>
                </mxCell>
                <mxCell id="59" value="B" style="shape=offPageConnector;whiteSpace=wrap;html=1;strokeWidth=1;" parent="1" vertex="1">
                    <mxGeometry x="894.38" y="40" width="80" height="80" as="geometry"/>
                </mxCell>
                <mxCell id="67" style="edgeStyle=none;html=1;entryX=0.485;entryY=0.049;entryDx=0;entryDy=0;entryPerimeter=0;" parent="1" source="60" target="84" edge="1">
                    <mxGeometry relative="1" as="geometry">
                        <mxPoint x="939.4512499999996" y="223.7800000000001" as="targetPoint"/>
                    </mxGeometry>
                </mxCell>
                <mxCell id="60" value="turn on motor" style="shape=process;whiteSpace=wrap;html=1;backgroundOutline=1;strokeWidth=1;" parent="1" vertex="1">
                    <mxGeometry x="874.38" y="140" width="120" height="60" as="geometry"/>
                </mxCell>
                <mxCell id="80" style="edgeStyle=none;html=1;entryX=0;entryY=0.5;entryDx=0;entryDy=0;" parent="1" source="84" target="85" edge="1">
                    <mxGeometry relative="1" as="geometry"/>
                </mxCell>
                <mxCell id="81" value="Yes" style="edgeLabel;html=1;align=center;verticalAlign=middle;resizable=0;points=[];" parent="80" vertex="1" connectable="0">
                    <mxGeometry x="0.3144" relative="1" as="geometry">
                        <mxPoint x="-15" as="offset"/>
                    </mxGeometry>
                </mxCell>
                <mxCell id="82" style="edgeStyle=none;html=1;" parent="1" source="84" target="90" edge="1">
                    <mxGeometry relative="1" as="geometry">
                        <mxPoint x="934.38" y="370" as="targetPoint"/>
                    </mxGeometry>
                </mxCell>
                <mxCell id="83" value="No" style="edgeLabel;html=1;align=center;verticalAlign=middle;resizable=0;points=[];" parent="82" vertex="1" connectable="0">
                    <mxGeometry x="-0.4326" y="1" relative="1" as="geometry">
                        <mxPoint as="offset"/>
                    </mxGeometry>
                </mxCell>
                <mxCell id="84" value="fanctionCase = 1" style="rhombus;whiteSpace=wrap;html=1;rounded=1;strokeWidth=1;" parent="1" vertex="1">
                    <mxGeometry x="880" y="230" width="108.75" height="105" as="geometry"/>
                </mxCell>
                <mxCell id="125" style="edgeStyle=none;html=1;entryX=1;entryY=0.5;entryDx=0;entryDy=0;" parent="1" source="85" target="126" edge="1">
                    <mxGeometry relative="1" as="geometry">
                        <mxPoint x="970" y="1110" as="targetPoint"/>
                        <Array as="points">
                            <mxPoint x="1240" y="280"/>
                            <mxPoint x="1240" y="1080"/>
                        </Array>
                    </mxGeometry>
                </mxCell>
                <mxCell id="85" value="set home" style="shape=process;whiteSpace=wrap;html=1;backgroundOutline=1;strokeWidth=1;" parent="1" vertex="1">
                    <mxGeometry x="1064.38" y="252.5" width="120" height="60" as="geometry"/>
                </mxCell>
                <mxCell id="86" style="edgeStyle=none;html=1;entryX=0;entryY=0.5;entryDx=0;entryDy=0;" parent="1" source="90" target="91" edge="1">
                    <mxGeometry relative="1" as="geometry"/>
                </mxCell>
                <mxCell id="87" value="Yes" style="edgeLabel;html=1;align=center;verticalAlign=middle;resizable=0;points=[];" parent="86" vertex="1" connectable="0">
                    <mxGeometry x="0.3144" relative="1" as="geometry">
                        <mxPoint x="-15" as="offset"/>
                    </mxGeometry>
                </mxCell>
                <mxCell id="88" style="edgeStyle=none;html=1;" parent="1" source="90" target="96" edge="1">
                    <mxGeometry relative="1" as="geometry">
                        <mxPoint x="934.38" y="510" as="targetPoint"/>
                    </mxGeometry>
                </mxCell>
                <mxCell id="89" value="No" style="edgeLabel;html=1;align=center;verticalAlign=middle;resizable=0;points=[];" parent="88" vertex="1" connectable="0">
                    <mxGeometry x="-0.4326" y="1" relative="1" as="geometry">
                        <mxPoint as="offset"/>
                    </mxGeometry>
                </mxCell>
                <mxCell id="90" value="fanctionCase = 2" style="rhombus;whiteSpace=wrap;html=1;rounded=1;strokeWidth=1;" parent="1" vertex="1">
                    <mxGeometry x="880" y="370" width="108.75" height="105" as="geometry"/>
                </mxCell>
                <mxCell id="124" style="edgeStyle=none;html=1;entryX=1;entryY=0.5;entryDx=0;entryDy=0;" parent="1" source="91" target="126" edge="1">
                    <mxGeometry relative="1" as="geometry">
                        <mxPoint x="970" y="1110" as="targetPoint"/>
                        <Array as="points">
                            <mxPoint x="1240" y="423"/>
                            <mxPoint x="1240" y="1080"/>
                        </Array>
                    </mxGeometry>
                </mxCell>
                <mxCell id="91" value="go to point" style="shape=process;whiteSpace=wrap;html=1;backgroundOutline=1;strokeWidth=1;" parent="1" vertex="1">
                    <mxGeometry x="1064.38" y="392.5" width="120" height="60" as="geometry"/>
                </mxCell>
                <mxCell id="92" style="edgeStyle=none;html=1;entryX=0;entryY=0.5;entryDx=0;entryDy=0;" parent="1" source="96" target="97" edge="1">
                    <mxGeometry relative="1" as="geometry"/>
                </mxCell>
                <mxCell id="93" value="Yes" style="edgeLabel;html=1;align=center;verticalAlign=middle;resizable=0;points=[];" parent="92" vertex="1" connectable="0">
                    <mxGeometry x="0.3144" relative="1" as="geometry">
                        <mxPoint x="-15" as="offset"/>
                    </mxGeometry>
                </mxCell>
                <mxCell id="94" style="edgeStyle=none;html=1;" parent="1" source="96" target="102" edge="1">
                    <mxGeometry relative="1" as="geometry">
                        <mxPoint x="934.38" y="650" as="targetPoint"/>
                    </mxGeometry>
                </mxCell>
                <mxCell id="95" value="No" style="edgeLabel;html=1;align=center;verticalAlign=middle;resizable=0;points=[];" parent="94" vertex="1" connectable="0">
                    <mxGeometry x="-0.4326" y="1" relative="1" as="geometry">
                        <mxPoint as="offset"/>
                    </mxGeometry>
                </mxCell>
                <mxCell id="96" value="fanctionCase = 3" style="rhombus;whiteSpace=wrap;html=1;rounded=1;strokeWidth=1;" parent="1" vertex="1">
                    <mxGeometry x="880" y="510" width="108.75" height="105" as="geometry"/>
                </mxCell>
                <mxCell id="122" style="edgeStyle=none;html=1;exitX=1;exitY=0.5;exitDx=0;exitDy=0;entryX=1;entryY=0.5;entryDx=0;entryDy=0;" parent="1" source="97" target="126" edge="1">
                    <mxGeometry relative="1" as="geometry">
                        <mxPoint x="950" y="1080" as="targetPoint"/>
                        <Array as="points">
                            <mxPoint x="1240" y="560"/>
                            <mxPoint x="1240" y="1080"/>
                        </Array>
                    </mxGeometry>
                </mxCell>
                <mxCell id="97" value="go to point many times&amp;nbsp;" style="shape=process;whiteSpace=wrap;html=1;backgroundOutline=1;strokeWidth=1;" parent="1" vertex="1">
                    <mxGeometry x="1064.38" y="532.5" width="120" height="60" as="geometry"/>
                </mxCell>
                <mxCell id="98" style="edgeStyle=none;html=1;entryX=0;entryY=0.5;entryDx=0;entryDy=0;" parent="1" source="102" target="103" edge="1">
                    <mxGeometry relative="1" as="geometry"/>
                </mxCell>
                <mxCell id="99" value="Yes" style="edgeLabel;html=1;align=center;verticalAlign=middle;resizable=0;points=[];" parent="98" vertex="1" connectable="0">
                    <mxGeometry x="0.3144" relative="1" as="geometry">
                        <mxPoint x="-15" as="offset"/>
                    </mxGeometry>
                </mxCell>
                <mxCell id="100" style="edgeStyle=none;html=1;entryX=0.503;entryY=0.035;entryDx=0;entryDy=0;entryPerimeter=0;" parent="1" source="102" target="108" edge="1">
                    <mxGeometry relative="1" as="geometry">
                        <mxPoint x="934.38" y="790" as="targetPoint"/>
                    </mxGeometry>
                </mxCell>
                <mxCell id="101" value="No" style="edgeLabel;html=1;align=center;verticalAlign=middle;resizable=0;points=[];" parent="100" vertex="1" connectable="0">
                    <mxGeometry x="-0.4326" y="1" relative="1" as="geometry">
                        <mxPoint as="offset"/>
                    </mxGeometry>
                </mxCell>
                <mxCell id="102" value="fanctionCase = 4" style="rhombus;whiteSpace=wrap;html=1;rounded=1;strokeWidth=1;" parent="1" vertex="1">
                    <mxGeometry x="880" y="650" width="108.75" height="105" as="geometry"/>
                </mxCell>
                <mxCell id="121" style="edgeStyle=none;html=1;entryX=1;entryY=0.5;entryDx=0;entryDy=0;" parent="1" source="103" target="126" edge="1">
                    <mxGeometry relative="1" as="geometry">
                        <mxPoint x="970" y="1110" as="targetPoint"/>
                        <Array as="points">
                            <mxPoint x="1240" y="700"/>
                            <mxPoint x="1240" y="1080"/>
                        </Array>
                    </mxGeometry>
                </mxCell>
                <mxCell id="103" value="turn off motor&amp;nbsp;" style="shape=process;whiteSpace=wrap;html=1;backgroundOutline=1;strokeWidth=1;" parent="1" vertex="1">
                    <mxGeometry x="1064.38" y="672.5" width="120" height="60" as="geometry"/>
                </mxCell>
                <mxCell id="104" style="edgeStyle=none;html=1;entryX=0;entryY=0.5;entryDx=0;entryDy=0;" parent="1" source="108" target="109" edge="1">
                    <mxGeometry relative="1" as="geometry"/>
                </mxCell>
                <mxCell id="105" value="Yes" style="edgeLabel;html=1;align=center;verticalAlign=middle;resizable=0;points=[];" parent="104" vertex="1" connectable="0">
                    <mxGeometry x="0.3144" relative="1" as="geometry">
                        <mxPoint x="-15" as="offset"/>
                    </mxGeometry>
                </mxCell>
                <mxCell id="106" style="edgeStyle=none;html=1;entryX=0.492;entryY=0.032;entryDx=0;entryDy=0;entryPerimeter=0;" parent="1" source="108" target="114" edge="1">
                    <mxGeometry relative="1" as="geometry">
                        <mxPoint x="934.38" y="930" as="targetPoint"/>
                    </mxGeometry>
                </mxCell>
                <mxCell id="107" value="No" style="edgeLabel;html=1;align=center;verticalAlign=middle;resizable=0;points=[];" parent="106" vertex="1" connectable="0">
                    <mxGeometry x="-0.4326" y="1" relative="1" as="geometry">
                        <mxPoint as="offset"/>
                    </mxGeometry>
                </mxCell>
                <mxCell id="108" value="fanctionCase = 5" style="rhombus;whiteSpace=wrap;html=1;rounded=1;strokeWidth=1;" parent="1" vertex="1">
                    <mxGeometry x="880" y="790" width="108.75" height="105" as="geometry"/>
                </mxCell>
                <mxCell id="120" style="edgeStyle=none;html=1;entryX=1;entryY=0.5;entryDx=0;entryDy=0;" parent="1" source="109" target="126" edge="1">
                    <mxGeometry relative="1" as="geometry">
                        <mxPoint x="970" y="1110" as="targetPoint"/>
                        <Array as="points">
                            <mxPoint x="1240" y="843"/>
                            <mxPoint x="1240" y="1080"/>
                        </Array>
                    </mxGeometry>
                </mxCell>
                <mxCell id="109" value="turn on motor" style="shape=process;whiteSpace=wrap;html=1;backgroundOutline=1;strokeWidth=1;" parent="1" vertex="1">
                    <mxGeometry x="1064.38" y="812.5" width="120" height="60" as="geometry"/>
                </mxCell>
                <mxCell id="110" style="edgeStyle=none;html=1;entryX=0;entryY=0.5;entryDx=0;entryDy=0;" parent="1" source="114" target="115" edge="1">
                    <mxGeometry relative="1" as="geometry"/>
                </mxCell>
                <mxCell id="111" value="Yes" style="edgeLabel;html=1;align=center;verticalAlign=middle;resizable=0;points=[];" parent="110" vertex="1" connectable="0">
                    <mxGeometry x="0.3144" relative="1" as="geometry">
                        <mxPoint x="-15" as="offset"/>
                    </mxGeometry>
                </mxCell>
                <mxCell id="112" style="edgeStyle=none;html=1;" parent="1" source="114" edge="1">
                    <mxGeometry relative="1" as="geometry">
                        <mxPoint x="934.38" y="1070" as="targetPoint"/>
                    </mxGeometry>
                </mxCell>
                <mxCell id="113" value="No" style="edgeLabel;html=1;align=center;verticalAlign=middle;resizable=0;points=[];" parent="112" vertex="1" connectable="0">
                    <mxGeometry x="-0.4326" y="1" relative="1" as="geometry">
                        <mxPoint as="offset"/>
                    </mxGeometry>
                </mxCell>
                <mxCell id="114" value="fanctionCase = 6" style="rhombus;whiteSpace=wrap;html=1;rounded=1;strokeWidth=1;" parent="1" vertex="1">
                    <mxGeometry x="880" y="930" width="108.75" height="105" as="geometry"/>
                </mxCell>
                <mxCell id="119" style="edgeStyle=none;html=1;entryX=1;entryY=0.5;entryDx=0;entryDy=0;" parent="1" source="115" target="126" edge="1">
                    <mxGeometry relative="1" as="geometry">
                        <mxPoint x="950" y="1080" as="targetPoint"/>
                        <Array as="points">
                            <mxPoint x="1240" y="983"/>
                            <mxPoint x="1240" y="1080"/>
                        </Array>
                    </mxGeometry>
                </mxCell>
                <mxCell id="115" value="press the pen" style="shape=process;whiteSpace=wrap;html=1;backgroundOutline=1;strokeWidth=1;" parent="1" vertex="1">
                    <mxGeometry x="1064.38" y="952.5" width="120" height="60" as="geometry"/>
                </mxCell>
                <mxCell id="117" value="A" style="shape=offPageConnector;whiteSpace=wrap;html=1;strokeWidth=1;" parent="1" vertex="1">
                    <mxGeometry x="894.37" y="1110" width="80" height="80" as="geometry"/>
                </mxCell>
                <mxCell id="127" style="edgeStyle=none;html=1;entryX=0.5;entryY=0;entryDx=0;entryDy=0;" parent="1" source="126" target="117" edge="1">
                    <mxGeometry relative="1" as="geometry"/>
                </mxCell>
                <mxCell id="126" value="" style="ellipse;whiteSpace=wrap;html=1;rounded=1;strokeWidth=1;" parent="1" vertex="1">
                    <mxGeometry x="924.38" y="1070" width="20" height="20" as="geometry"/>
                </mxCell>
                <mxCell id="131" style="edgeStyle=none;html=1;" edge="1" parent="1" source="129" target="130">
                    <mxGeometry relative="1" as="geometry"/>
                </mxCell>
                <mxCell id="129" value="set home" style="rounded=1;whiteSpace=wrap;html=1;strokeWidth=1;arcSize=50;" vertex="1" parent="1">
                    <mxGeometry x="1430" y="40" width="120" height="60" as="geometry"/>
                </mxCell>
                <mxCell id="133" style="edgeStyle=none;html=1;entryX=0.5;entryY=0;entryDx=0;entryDy=0;" edge="1" parent="1" source="130" target="132">
                    <mxGeometry relative="1" as="geometry"/>
                </mxCell>
                <mxCell id="134" value="No" style="edgeLabel;html=1;align=center;verticalAlign=middle;resizable=0;points=[];" vertex="1" connectable="0" parent="133">
                    <mxGeometry x="-0.4048" y="2" relative="1" as="geometry">
                        <mxPoint as="offset"/>
                    </mxGeometry>
                </mxCell>
                <mxCell id="137" style="edgeStyle=none;html=1;entryX=0.5;entryY=0;entryDx=0;entryDy=0;" edge="1" parent="1" source="130" target="142">
                    <mxGeometry relative="1" as="geometry">
                        <mxPoint x="1490" y="450" as="targetPoint"/>
                        <Array as="points">
                            <mxPoint x="1650" y="188"/>
                            <mxPoint x="1650" y="420"/>
                            <mxPoint x="1490" y="420"/>
                        </Array>
                    </mxGeometry>
                </mxCell>
                <mxCell id="141" value="Yes" style="edgeLabel;html=1;align=center;verticalAlign=middle;resizable=0;points=[];" vertex="1" connectable="0" parent="137">
                    <mxGeometry x="-0.753" relative="1" as="geometry">
                        <mxPoint as="offset"/>
                    </mxGeometry>
                </mxCell>
                <mxCell id="130" value="limit switch&amp;nbsp; is press" style="rhombus;whiteSpace=wrap;html=1;rounded=1;strokeWidth=1;" vertex="1" parent="1">
                    <mxGeometry x="1417.81" y="120" width="144.38" height="135" as="geometry"/>
                </mxCell>
                <mxCell id="135" style="edgeStyle=none;html=1;entryX=0;entryY=0.5;entryDx=0;entryDy=0;" edge="1" parent="1" source="132" target="130">
                    <mxGeometry relative="1" as="geometry">
                        <mxPoint x="1490" y="410" as="targetPoint"/>
                        <Array as="points">
                            <mxPoint x="1490" y="400"/>
                            <mxPoint x="1360" y="400"/>
                            <mxPoint x="1360" y="188"/>
                        </Array>
                    </mxGeometry>
                </mxCell>
                <mxCell id="132" value="Rotate&amp;nbsp; the arm counter clockwise&amp;nbsp;" style="rounded=1;whiteSpace=wrap;html=1;" vertex="1" parent="1">
                    <mxGeometry x="1380" y="312.5" width="220" height="60" as="geometry"/>
                </mxCell>
                <mxCell id="145" style="edgeStyle=none;html=1;" edge="1" parent="1" source="142" target="144">
                    <mxGeometry relative="1" as="geometry"/>
                </mxCell>
                <mxCell id="142" value="Stop move the Rotate" style="rounded=1;whiteSpace=wrap;html=1;" vertex="1" parent="1">
                    <mxGeometry x="1380" y="455" width="220" height="60" as="geometry"/>
                </mxCell>
                <mxCell id="144" value="END" style="rounded=1;whiteSpace=wrap;html=1;strokeWidth=1;arcSize=50;" vertex="1" parent="1">
                    <mxGeometry x="1430" y="540" width="120" height="60" as="geometry"/>
                </mxCell>
                <mxCell id="148" style="edgeStyle=none;html=1;" edge="1" parent="1" source="146" target="147">
                    <mxGeometry relative="1" as="geometry"/>
                </mxCell>
                <mxCell id="146" value="go to point" style="rounded=1;whiteSpace=wrap;html=1;strokeWidth=1;arcSize=50;" vertex="1" parent="1">
                    <mxGeometry x="1832.19" y="40" width="120" height="60" as="geometry"/>
                </mxCell>
                <mxCell id="150" style="edgeStyle=none;html=1;" edge="1" parent="1" source="147" target="149">
                    <mxGeometry relative="1" as="geometry"/>
                </mxCell>
                <mxCell id="151" value="No" style="edgeLabel;html=1;align=center;verticalAlign=middle;resizable=0;points=[];" vertex="1" connectable="0" parent="150">
                    <mxGeometry x="-0.3979" y="3" relative="1" as="geometry">
                        <mxPoint as="offset"/>
                    </mxGeometry>
                </mxCell>
                <mxCell id="154" style="edgeStyle=none;html=1;" edge="1" parent="1" source="147" target="153">
                    <mxGeometry relative="1" as="geometry">
                        <Array as="points">
                            <mxPoint x="2090" y="210"/>
                            <mxPoint x="2090" y="420"/>
                            <mxPoint x="1892" y="420"/>
                        </Array>
                    </mxGeometry>
                </mxCell>
                <mxCell id="156" value="Yes" style="edgeLabel;html=1;align=center;verticalAlign=middle;resizable=0;points=[];" vertex="1" connectable="0" parent="154">
                    <mxGeometry x="-0.7844" y="-1" relative="1" as="geometry">
                        <mxPoint as="offset"/>
                    </mxGeometry>
                </mxCell>
                <mxCell id="147" value="if current of the arm &lt;br&gt;&amp;gt;=&lt;br&gt;&amp;nbsp;parameter at&amp;nbsp; zeroth index&amp;nbsp;&amp;nbsp;" style="rhombus;whiteSpace=wrap;html=1;rounded=1;strokeWidth=1;" vertex="1" parent="1">
                    <mxGeometry x="1797.19" y="120" width="190" height="180" as="geometry"/>
                </mxCell>
                <mxCell id="161" style="edgeStyle=none;html=1;entryX=0;entryY=0.5;entryDx=0;entryDy=0;" edge="1" parent="1" source="149" target="147">
                    <mxGeometry relative="1" as="geometry">
                        <Array as="points">
                            <mxPoint x="1720" y="370"/>
                            <mxPoint x="1720" y="210"/>
                        </Array>
                    </mxGeometry>
                </mxCell>
                <mxCell id="149" value="Rotate&amp;nbsp; the arm clockwise&amp;nbsp;" style="rounded=1;whiteSpace=wrap;html=1;" vertex="1" parent="1">
                    <mxGeometry x="1782.19" y="340" width="220" height="60" as="geometry"/>
                </mxCell>
                <mxCell id="158" style="edgeStyle=none;html=1;entryX=0.5;entryY=0;entryDx=0;entryDy=0;" edge="1" parent="1" source="153" target="157">
                    <mxGeometry relative="1" as="geometry"/>
                </mxCell>
                <mxCell id="153" value="Stop move the Rotate" style="rounded=1;whiteSpace=wrap;html=1;" vertex="1" parent="1">
                    <mxGeometry x="1782.19" y="460" width="220" height="60" as="geometry"/>
                </mxCell>
                <mxCell id="160" style="edgeStyle=none;html=1;" edge="1" parent="1" source="157" target="159">
                    <mxGeometry relative="1" as="geometry"/>
                </mxCell>
                <mxCell id="157" value="press the pen" style="shape=process;whiteSpace=wrap;html=1;backgroundOutline=1;strokeWidth=1;" vertex="1" parent="1">
                    <mxGeometry x="1832.19" y="555" width="120" height="60" as="geometry"/>
                </mxCell>
                <mxCell id="159" value="END" style="rounded=1;whiteSpace=wrap;html=1;strokeWidth=1;arcSize=50;" vertex="1" parent="1">
                    <mxGeometry x="1832.19" y="640" width="120" height="60" as="geometry"/>
                </mxCell>
                <mxCell id="167" style="edgeStyle=none;html=1;" edge="1" parent="1" source="162" target="166">
                    <mxGeometry relative="1" as="geometry"/>
                </mxCell>
                <mxCell id="162" value="go to point many times&amp;nbsp;" style="rounded=1;whiteSpace=wrap;html=1;strokeWidth=1;arcSize=50;" vertex="1" parent="1">
                    <mxGeometry x="1430" y="740" width="120" height="60" as="geometry"/>
                </mxCell>
                <mxCell id="178" style="edgeStyle=none;html=1;" edge="1" parent="1" source="163" target="177">
                    <mxGeometry relative="1" as="geometry"/>
                </mxCell>
                <mxCell id="163" value="go to point" style="shape=process;whiteSpace=wrap;html=1;backgroundOutline=1;strokeWidth=1;" vertex="1" parent="1">
                    <mxGeometry x="1430" y="1240" width="120" height="60" as="geometry"/>
                </mxCell>
                <mxCell id="175" style="edgeStyle=none;html=1;entryX=0.5;entryY=0;entryDx=0;entryDy=0;" edge="1" parent="1" source="164" target="163">
                    <mxGeometry relative="1" as="geometry"/>
                </mxCell>
                <mxCell id="164" value="set home" style="shape=process;whiteSpace=wrap;html=1;backgroundOutline=1;strokeWidth=1;" vertex="1" parent="1">
                    <mxGeometry x="1430" y="1150" width="120" height="60" as="geometry"/>
                </mxCell>
                <mxCell id="172" style="edgeStyle=none;html=1;" edge="1" parent="1" source="166" target="170">
                    <mxGeometry relative="1" as="geometry"/>
                </mxCell>
                <mxCell id="166" value="Create value :&amp;nbsp;&lt;br&gt;round = 0" style="rounded=1;whiteSpace=wrap;html=1;" vertex="1" parent="1">
                    <mxGeometry x="1430" y="840" width="120" height="60" as="geometry"/>
                </mxCell>
                <mxCell id="173" style="edgeStyle=none;html=1;entryX=0.5;entryY=0;entryDx=0;entryDy=0;" edge="1" parent="1" source="170" target="164">
                    <mxGeometry relative="1" as="geometry"/>
                </mxCell>
                <mxCell id="174" value="Yes" style="edgeLabel;html=1;align=center;verticalAlign=middle;resizable=0;points=[];" vertex="1" connectable="0" parent="173">
                    <mxGeometry x="-0.7444" y="-1" relative="1" as="geometry">
                        <mxPoint x="1" y="5" as="offset"/>
                    </mxGeometry>
                </mxCell>
                <mxCell id="181" style="edgeStyle=none;html=1;entryX=0.5;entryY=0;entryDx=0;entryDy=0;" edge="1" parent="1" source="170" target="180">
                    <mxGeometry relative="1" as="geometry">
                        <Array as="points">
                            <mxPoint x="1610" y="1020"/>
                            <mxPoint x="1610" y="1440"/>
                            <mxPoint x="1490" y="1440"/>
                        </Array>
                    </mxGeometry>
                </mxCell>
                <mxCell id="183" value="No" style="edgeLabel;html=1;align=center;verticalAlign=middle;resizable=0;points=[];" vertex="1" connectable="0" parent="181">
                    <mxGeometry x="-0.7658" y="1" relative="1" as="geometry">
                        <mxPoint y="55" as="offset"/>
                    </mxGeometry>
                </mxCell>
                <mxCell id="170" value="if round&amp;nbsp;&lt;br&gt;&amp;lt;&amp;nbsp;&lt;br&gt;parameter at first index" style="rhombus;whiteSpace=wrap;html=1;rounded=1;strokeWidth=1;" vertex="1" parent="1">
                    <mxGeometry x="1395" y="930" width="190" height="180" as="geometry"/>
                </mxCell>
                <mxCell id="179" style="edgeStyle=none;html=1;entryX=0;entryY=0.5;entryDx=0;entryDy=0;" edge="1" parent="1" source="177" target="170">
                    <mxGeometry relative="1" as="geometry">
                        <mxPoint x="1490" y="1430" as="targetPoint"/>
                        <Array as="points">
                            <mxPoint x="1490" y="1410"/>
                            <mxPoint x="1360" y="1410"/>
                            <mxPoint x="1360" y="1020"/>
                        </Array>
                    </mxGeometry>
                </mxCell>
                <mxCell id="177" value="round = round += 1" style="rounded=1;whiteSpace=wrap;html=1;" vertex="1" parent="1">
                    <mxGeometry x="1430" y="1330" width="120" height="60" as="geometry"/>
                </mxCell>
                <mxCell id="180" value="END" style="rounded=1;whiteSpace=wrap;html=1;strokeWidth=1;arcSize=50;" vertex="1" parent="1">
                    <mxGeometry x="1430" y="1470" width="120" height="60" as="geometry"/>
                </mxCell>
                <mxCell id="186" style="edgeStyle=none;html=1;entryX=0.5;entryY=0;entryDx=0;entryDy=0;" edge="1" parent="1" source="184" target="185">
                    <mxGeometry relative="1" as="geometry"/>
                </mxCell>
                <mxCell id="184" value="turn off motor&amp;nbsp;" style="rounded=1;whiteSpace=wrap;html=1;strokeWidth=1;arcSize=50;" vertex="1" parent="1">
                    <mxGeometry x="1782.19" y="740" width="120" height="60" as="geometry"/>
                </mxCell>
                <mxCell id="188" style="edgeStyle=none;html=1;entryX=0.5;entryY=0;entryDx=0;entryDy=0;" edge="1" parent="1" source="185" target="187">
                    <mxGeometry relative="1" as="geometry"/>
                </mxCell>
                <mxCell id="185" value="set enable pin of&amp;nbsp; stepper for the arm to High" style="rounded=1;whiteSpace=wrap;html=1;" vertex="1" parent="1">
                    <mxGeometry x="1705" y="830" width="275" height="70" as="geometry"/>
                </mxCell>
                <mxCell id="191" style="edgeStyle=none;html=1;entryX=0.5;entryY=0;entryDx=0;entryDy=0;" edge="1" parent="1" source="187" target="190">
                    <mxGeometry relative="1" as="geometry"/>
                </mxCell>
                <mxCell id="187" value="set enable pin of&amp;nbsp; stepper for the pen to High" style="rounded=1;whiteSpace=wrap;html=1;" vertex="1" parent="1">
                    <mxGeometry x="1705" y="920" width="275" height="70" as="geometry"/>
                </mxCell>
                <mxCell id="190" value="END" style="rounded=1;whiteSpace=wrap;html=1;strokeWidth=1;arcSize=50;" vertex="1" parent="1">
                    <mxGeometry x="1782.19" y="1010" width="120" height="60" as="geometry"/>
                </mxCell>
                <mxCell id="192" style="edgeStyle=none;html=1;entryX=0.5;entryY=0;entryDx=0;entryDy=0;" edge="1" parent="1" source="193" target="195">
                    <mxGeometry relative="1" as="geometry"/>
                </mxCell>
                <mxCell id="193" value="turn on motor&amp;nbsp;" style="rounded=1;whiteSpace=wrap;html=1;strokeWidth=1;arcSize=50;" vertex="1" parent="1">
                    <mxGeometry x="2079.69" y="740" width="120" height="60" as="geometry"/>
                </mxCell>
                <mxCell id="194" style="edgeStyle=none;html=1;entryX=0.5;entryY=0;entryDx=0;entryDy=0;" edge="1" parent="1" source="195" target="197">
                    <mxGeometry relative="1" as="geometry"/>
                </mxCell>
                <mxCell id="195" value="set enable pin of&amp;nbsp; stepper for the arm to Low" style="rounded=1;whiteSpace=wrap;html=1;" vertex="1" parent="1">
                    <mxGeometry x="2002.19" y="830" width="275" height="70" as="geometry"/>
                </mxCell>
                <mxCell id="196" style="edgeStyle=none;html=1;entryX=0.5;entryY=0;entryDx=0;entryDy=0;" edge="1" parent="1" source="197" target="198">
                    <mxGeometry relative="1" as="geometry"/>
                </mxCell>
                <mxCell id="197" value="set enable pin of&amp;nbsp; stepper for the pen to Low" style="rounded=1;whiteSpace=wrap;html=1;" vertex="1" parent="1">
                    <mxGeometry x="2002.19" y="920" width="275" height="70" as="geometry"/>
                </mxCell>
                <mxCell id="198" value="END" style="rounded=1;whiteSpace=wrap;html=1;strokeWidth=1;arcSize=50;" vertex="1" parent="1">
                    <mxGeometry x="2079.38" y="1010" width="120" height="60" as="geometry"/>
                </mxCell>
                <mxCell id="207" style="edgeStyle=none;html=1;" edge="1" parent="1" source="199" target="200">
                    <mxGeometry relative="1" as="geometry"/>
                </mxCell>
                <mxCell id="199" value="press the pen" style="rounded=1;whiteSpace=wrap;html=1;strokeWidth=1;arcSize=50;" vertex="1" parent="1">
                    <mxGeometry x="2390.38" y="60" width="120" height="60" as="geometry"/>
                </mxCell>
                <mxCell id="204" style="edgeStyle=none;html=1;entryX=0.5;entryY=0;entryDx=0;entryDy=0;" edge="1" parent="1" source="200" target="201">
                    <mxGeometry relative="1" as="geometry"/>
                </mxCell>
                <mxCell id="200" value="move the pen down" style="rounded=1;whiteSpace=wrap;html=1;" vertex="1" parent="1">
                    <mxGeometry x="2390" y="160" width="120" height="60" as="geometry"/>
                </mxCell>
                <mxCell id="205" style="edgeStyle=none;html=1;" edge="1" parent="1" source="201" target="202">
                    <mxGeometry relative="1" as="geometry"/>
                </mxCell>
                <mxCell id="201" value="delay 1 second" style="rounded=1;whiteSpace=wrap;html=1;" vertex="1" parent="1">
                    <mxGeometry x="2390" y="247" width="120" height="60" as="geometry"/>
                </mxCell>
                <mxCell id="206" style="edgeStyle=none;html=1;entryX=0.5;entryY=0;entryDx=0;entryDy=0;" edge="1" parent="1" source="202" target="203">
                    <mxGeometry relative="1" as="geometry"/>
                </mxCell>
                <mxCell id="202" value="move the pen up" style="rounded=1;whiteSpace=wrap;html=1;" vertex="1" parent="1">
                    <mxGeometry x="2390" y="333" width="120" height="60" as="geometry"/>
                </mxCell>
                <mxCell id="209" style="edgeStyle=none;html=1;" edge="1" parent="1" source="203" target="208">
                    <mxGeometry relative="1" as="geometry"/>
                </mxCell>
                <mxCell id="203" value="delay 1 second" style="rounded=1;whiteSpace=wrap;html=1;" vertex="1" parent="1">
                    <mxGeometry x="2390" y="420" width="120" height="60" as="geometry"/>
                </mxCell>
                <mxCell id="208" value="END" style="rounded=1;whiteSpace=wrap;html=1;strokeWidth=1;arcSize=50;" vertex="1" parent="1">
                    <mxGeometry x="2390" y="510" width="120" height="60" as="geometry"/>
                </mxCell>
            </root>
        </mxGraphModel>
    </diagram>
</mxfile>